<?xml version="1.0" standalone="no"?>
<!DOCTYPE svg PUBLIC "-//W3C//DTD SVG 20010904//EN"
 "http://www.w3.org/TR/2001/REC-SVG-20010904/DTD/svg10.dtd">
<svg version="1.0" xmlns="http://www.w3.org/2000/svg"
 width="1338.000000pt" height="1066.000000pt" viewBox="0 0 1338.000000 1066.000000"
 preserveAspectRatio="xMidYMid meet">

<g transform="translate(0.000000,1066.000000) scale(0.100000,-0.100000)"
fill="#000000" stroke="none">
<path d="M0 5330 l0 -5330 6685 0 6685 0 0 5330 0 5330 -6685 0 -6685 0 0
-5330z m7159 3346 c154 -29 204 -50 261 -112 82 -89 105 -205 65 -324 -36
-109 -165 -200 -283 -200 -26 0 -104 10 -174 22 -100 17 -128 25 -128 37 0 52
105 601 115 601 7 0 71 -11 144 -24z m-924 -27 c4 -17 5 -32 3 -33 -1 -2 -79
-18 -173 -36 -93 -18 -173 -36 -178 -40 -6 -5 25 -185 34 -195 2 -2 67 10 144
25 77 16 145 29 151 30 11 0 29 -59 21 -67 -2 -1 -68 -16 -146 -32 -78 -16
-145 -31 -148 -35 -4 -3 4 -65 17 -136 13 -72 21 -132 19 -134 -2 -2 -19 -6
-38 -8 l-35 -3 -57 285 c-32 157 -58 294 -59 306 0 20 15 24 198 62 247 50
239 50 247 11z m-1127 -661 c147 -99 272 -185 277 -190 12 -11 -32 -47 -57
-48 -9 0 -43 18 -74 40 -32 22 -61 40 -65 40 -7 0 -234 -144 -251 -159 -4 -3
0 -40 8 -81 8 -41 12 -79 10 -85 -2 -5 -18 -18 -35 -28 -24 -14 -32 -15 -35
-5 -3 7 -30 157 -62 332 l-57 319 29 24 c16 12 33 23 37 23 5 0 128 -82 275
-182z m3456 159 l29 -23 -57 -315 c-31 -173 -60 -322 -64 -331 -6 -16 -10 -16
-40 4 -30 19 -33 25 -28 52 4 17 9 56 12 86 l5 55 -102 65 c-56 36 -112 71
-125 79 -20 13 -27 11 -86 -27 -36 -23 -71 -42 -79 -42 -20 1 -65 37 -56 46
18 19 543 373 552 374 6 0 23 -11 39 -23z m-1538 -456 c250 -37 471 -107 704
-222 688 -341 1156 -970 1291 -1734 27 -154 37 -476 19 -637 -59 -549 -295
-1044 -680 -1428 -368 -368 -802 -588 -1335 -677 -168 -27 -544 -25 -720 5
-862 148 -1559 723 -1859 1533 -133 361 -175 811 -111 1196 179 1074 1065
1891 2150 1983 140 12 388 3 541 -19z m-3268 -3413 c5 -7 18 -38 27 -70 15
-47 16 -61 6 -86 -24 -58 -115 -78 -154 -34 -8 9 -23 37 -33 60 -15 38 -20 43
-40 38 -13 -3 -35 -9 -49 -12 -18 -5 -25 -2 -25 9 0 10 40 30 123 61 140 52
131 50 145 34z m5892 -43 c0 -8 -4 -15 -9 -15 -16 0 -41 -30 -41 -50 0 -34 32
-33 69 4 50 49 83 60 127 41 43 -18 58 -53 44 -105 -10 -39 -50 -80 -76 -80
-24 0 -15 25 16 48 23 17 30 31 30 55 0 69 -50 76 -114 17 -47 -43 -83 -51
-110 -24 -23 22 -20 80 4 104 24 24 60 27 60 5z m-5752 -303 c2 -6 -19 -23
-47 -37 -28 -14 -51 -30 -51 -36 0 -12 69 -139 76 -139 3 0 22 9 44 20 45 23
70 26 70 8 0 -13 -215 -129 -237 -128 -23 0 -13 27 15 39 15 7 37 19 50 27
l22 14 -35 70 c-19 39 -40 70 -46 70 -5 0 -27 -9 -49 -20 -45 -23 -74 -26 -68
-7 5 14 228 137 242 133 6 -1 11 -7 14 -14z m5612 -14 c0 -7 -16 -28 -35 -47
-49 -47 -49 -99 -1 -147 46 -46 101 -48 148 -5 28 25 33 36 34 81 1 28 5 54 9
58 11 11 25 -22 25 -61 0 -129 -154 -192 -244 -98 -30 32 -44 97 -32 147 12
47 96 110 96 72z m-5415 -335 c0 -14 -210 -153 -231 -153 -33 0 -4 28 101 97
104 69 130 80 130 56z m5300 -58 c69 -44 113 -80 109 -86 -10 -17 -32 -7 -141
65 -100 65 -110 75 -96 89 9 10 3 13 128 -68z m-5195 -99 c0 -7 -25 -33 -56
-56 -106 -83 -118 -123 -58 -197 23 -28 34 -50 30 -60 -6 -14 -11 -12 -36 12
-17 16 -39 48 -51 71 -32 68 -16 109 74 184 72 60 97 72 97 46z m4988 -43 c-2
-9 -12 -17 -22 -19 -27 -4 -50 -30 -43 -48 9 -22 40 -20 87 4 52 27 86 25 115
-5 37 -36 35 -94 -6 -134 -33 -34 -89 -44 -89 -16 0 8 8 15 19 15 10 0 30 9
45 21 35 27 35 72 2 95 -24 15 -29 14 -87 -12 -57 -26 -63 -27 -88 -13 -37 21
-41 70 -7 104 29 29 79 35 74 8z m-218 -312 c19 -76 27 -94 61 -127 21 -21 39
-42 39 -46 0 -19 -29 -5 -64 30 -31 33 -49 42 -116 57 -84 19 -109 30 -97 41
4 4 42 0 84 -9 42 -9 78 -15 80 -14 1 2 -6 35 -17 73 -24 82 -24 84 -6 84 9 0
21 -30 36 -89z m-4487 18 c66 -34 96 -99 77 -168 -29 -108 -178 -134 -247 -45
-33 43 -37 116 -9 158 37 57 124 83 179 55z m4266 -285 c40 -53 76 -104 78
-115 9 -34 -21 -20 -56 26 l-34 45 -36 -27 c-20 -15 -50 -38 -68 -52 l-31 -25
34 -44 c36 -47 40 -57 25 -66 -19 -12 -189 210 -174 225 11 11 38 -13 77 -67
13 -18 15 -17 52 9 22 15 52 38 68 51 l29 24 -31 43 c-18 24 -32 49 -32 56 0
31 30 6 99 -83z m-3914 -9 c28 -27 34 -75 10 -75 -8 0 -15 8 -15 18 0 25 -19
42 -47 42 -29 0 -29 -18 -3 -70 54 -105 -9 -190 -105 -144 -39 18 -71 73 -61
101 9 22 29 10 38 -23 9 -35 33 -54 68 -54 52 0 63 36 30 100 -27 53 -26 95 2
114 32 22 55 20 83 -9z m3543 -191 c43 -49 25 -114 -43 -157 l-44 -28 19 -32
c24 -38 25 -57 6 -57 -8 0 -45 52 -82 116 -75 130 -76 123 11 169 59 31 99 28
133 -11z m-3195 -30 c31 -22 57 -81 57 -127 0 -72 -67 -131 -149 -129 -136 2
-185 190 -68 263 40 25 121 22 160 -7z m356 -167 c82 -38 91 -138 15 -175 -35
-16 -48 -15 -135 14 -12 4 -21 -6 -33 -35 -15 -40 -29 -50 -40 -32 -6 9 79
227 96 249 12 14 30 10 97 -21z m2249 -33 c-2 -9 -30 -26 -67 -40 -36 -14 -67
-26 -69 -28 -2 -2 2 -23 9 -45 9 -32 16 -40 28 -36 40 16 101 28 107 23 12
-12 -7 -27 -56 -43 -28 -9 -50 -21 -50 -26 0 -5 7 -26 15 -46 17 -41 19 -73 5
-73 -18 0 -106 236 -98 261 4 11 139 66 166 68 8 1 12 -6 10 -15z m-1974 -72
c3 -5 -1 -32 -9 -60 -7 -29 -10 -54 -6 -56 10 -7 128 -36 144 -36 9 0 19 18
27 48 15 55 26 70 39 57 9 -9 -50 -259 -64 -273 -3 -3 -10 -1 -16 5 -7 7 -6
27 4 67 l15 56 -41 11 c-23 5 -60 15 -81 20 -45 12 -51 6 -61 -53 -7 -40 -29
-66 -40 -49 -5 9 49 242 62 264 6 9 21 9 27 -1z m1593 -72 c87 -52 83 -198 -6
-245 -71 -36 -169 -6 -197 60 -44 105 17 205 126 205 27 0 58 -8 77 -20z
m-1051 -27 c8 -3 14 -12 14 -20 0 -15 -21 -15 -126 3 -31 6 -32 4 -39 -35 -8
-50 -2 -61 35 -61 39 0 83 -18 75 -30 -4 -7 -28 -8 -66 -4 -57 6 -59 6 -59
-17 0 -13 -3 -34 -6 -45 -6 -23 -14 -21 116 -40 27 -4 40 -11 40 -21 0 -13
-10 -15 -62 -9 -125 13 -128 15 -128 50 0 17 7 76 15 131 8 55 15 104 15 109
0 8 149 -1 176 -11z m359 -43 c36 -34 35 -97 -1 -134 l-27 -26 27 -40 c25 -38
27 -60 6 -60 -4 0 -24 23 -44 50 -31 43 -41 50 -70 50 -34 0 -35 -1 -38 -47
-2 -26 -9 -48 -15 -51 -10 -3 -13 29 -13 136 0 76 3 142 8 146 4 4 37 6 74 4
54 -3 72 -8 93 -28z"/>
<path d="M7070 8613 c0 -4 -18 -110 -41 -236 -22 -126 -39 -230 -37 -233 2 -2
51 -11 109 -20 122 -19 163 -13 230 39 115 87 125 263 22 358 -48 45 -76 58
-158 74 -44 9 -90 18 -102 21 -13 2 -23 1 -23 -3z"/>
<path d="M4864 8033 c2 -10 14 -74 27 -143 12 -69 25 -128 28 -132 7 -8 191
109 191 122 0 8 -233 170 -245 170 -3 0 -4 -8 -1 -17z"/>
<path d="M8378 7976 c-59 -40 -114 -79 -123 -86 -14 -12 -5 -21 82 -76 54 -35
101 -60 104 -56 8 10 52 267 48 280 -2 6 -52 -22 -111 -62z"/>
<path d="M6670 7634 c337 -37 615 -129 900 -300 247 -148 438 -307 835 -695
261 -254 362 -346 371 -336 9 9 -91 198 -163 307 -232 351 -532 615 -915 805
-317 157 -661 237 -1010 234 l-143 -1 125 -14z"/>
<path d="M6245 7579 c-363 -50 -732 -208 -1015 -436 -107 -86 -186 -160 -179
-167 3 -3 53 14 110 39 645 282 1233 374 1759 274 323 -62 693 -241 1015 -494
119 -93 164 -132 435 -374 281 -253 499 -425 516 -408 3 3 -6 41 -20 85 l-27
79 -103 86 c-57 48 -209 189 -338 315 -129 125 -275 264 -325 309 -407 365
-793 577 -1220 669 -101 22 -148 26 -328 29 -115 2 -241 -1 -280 -6z"/>
<path d="M6305 7273 c-376 -32 -798 -153 -1237 -353 -133 -60 -140 -65 -191
-129 -102 -128 -209 -291 -189 -291 5 0 83 35 173 79 707 338 1361 488 1887
430 485 -52 888 -240 1397 -650 105 -84 251 -202 325 -262 195 -157 455 -325
474 -306 3 3 -2 35 -10 71 -15 64 -18 68 -62 94 -125 72 -288 204 -597 484
-82 74 -190 169 -240 211 -454 381 -855 568 -1327 619 -90 9 -310 11 -403 3z"/>
<path d="M6320 6964 c-332 -30 -720 -128 -1080 -272 -280 -113 -601 -269 -624
-304 -26 -40 -108 -238 -104 -253 2 -10 35 1 128 46 776 375 1419 545 1984
526 343 -12 611 -78 921 -226 210 -100 374 -205 710 -455 264 -196 444 -315
578 -380 143 -71 150 -71 142 -8 -10 74 -11 75 -92 116 -158 82 -294 179 -616
443 -370 304 -549 428 -782 543 -214 107 -393 165 -632 206 -85 15 -438 26
-533 18z"/>
<path d="M6270 6649 c-473 -49 -1053 -235 -1629 -524 -94 -47 -171 -87 -171
-89 0 -2 -13 -54 -30 -117 -16 -62 -27 -115 -24 -118 6 -6 25 1 214 89 587
271 1191 453 1664 499 140 14 428 14 554 0 300 -32 608 -129 889 -279 131 -70
216 -122 488 -300 342 -224 493 -309 655 -372 118 -47 110 -48 110 22 l0 61
-47 20 c-203 85 -382 196 -728 453 -588 436 -913 588 -1388 651 -128 16 -413
18 -557 4z"/>
<path d="M6280 6338 c-326 -33 -730 -135 -1125 -284 -323 -120 -751 -314 -759
-343 -8 -29 -27 -203 -22 -208 2 -3 94 33 203 80 626 268 1195 433 1693 493
197 24 529 24 705 0 388 -53 677 -166 1224 -480 151 -87 326 -183 390 -215
115 -58 320 -143 374 -157 l28 -6 -3 61 -3 62 -95 38 c-212 85 -324 148 -680
381 -293 192 -365 236 -510 313 -280 148 -558 234 -865 267 -108 12 -436 11
-555 -2z"/>
<path d="M6450 6043 c-360 -21 -839 -129 -1308 -294 -212 -75 -585 -225 -744
-299 -28 -13 -28 -14 -28 -117 0 -74 3 -103 12 -103 7 0 82 28 168 61 612 243
1206 408 1700 475 160 21 576 30 726 15 244 -25 484 -84 723 -177 64 -25 285
-128 491 -229 431 -210 736 -337 775 -321 11 4 15 21 15 59 l0 53 -72 23
c-188 61 -341 136 -763 379 -278 160 -462 253 -621 315 -327 128 -694 182
-1074 160z"/>
<path d="M6345 5724 c-478 -53 -995 -189 -1644 -431 -281 -104 -326 -123 -326
-138 2 -70 19 -177 29 -181 7 -3 140 38 297 90 716 240 1292 374 1787 417 178
15 592 6 732 -16 324 -51 534 -118 1034 -332 357 -152 673 -268 690 -253 4 4
9 31 10 60 l1 52 -135 47 c-173 60 -314 123 -630 281 -503 252 -727 334 -1060
391 -166 28 -589 35 -785 13z"/>
<path d="M6520 5434 c-524 -48 -1105 -184 -1840 -430 -140 -47 -259 -90 -264
-94 -10 -9 22 -163 38 -186 10 -12 17 -13 41 -4 67 26 567 166 820 230 1054
267 1735 315 2352 165 176 -43 320 -89 673 -217 356 -129 528 -188 549 -188
12 0 21 15 30 50 7 27 10 53 7 58 -3 5 -26 15 -52 21 -81 21 -359 128 -651
252 -494 210 -678 269 -993 320 -99 17 -181 22 -395 24 -148 1 -290 1 -315 -1z"/>
<path d="M6720 5144 c-360 -25 -787 -96 -1255 -209 -294 -71 -974 -261 -990
-277 -3 -3 9 -46 27 -96 24 -71 36 -92 50 -92 10 0 149 32 310 70 1515 365
2228 445 2879 324 197 -36 605 -154 1013 -294 50 -16 93 -27 97 -23 10 10 34
101 28 106 -2 2 -89 33 -194 69 -104 36 -310 109 -456 162 -409 147 -627 205
-895 241 -114 15 -497 27 -614 19z"/>
<path d="M6965 4864 c-515 -38 -968 -113 -1715 -284 -512 -118 -680 -161 -680
-176 0 -28 84 -184 100 -184 8 0 290 54 625 120 1263 250 1600 303 2015 317
396 13 737 -44 1268 -211 l204 -64 24 51 c13 29 20 55 16 58 -4 4 -104 38
-222 77 -705 233 -964 288 -1390 296 -107 2 -217 2 -245 0z"/>
<path d="M7155 4599 c-243 -16 -537 -59 -1005 -144 -405 -75 -1449 -281 -1456
-288 -4 -3 22 -49 57 -102 48 -73 68 -95 85 -95 86 0 817 129 1504 265 799
159 936 180 1215 191 303 13 660 -43 1023 -161 60 -19 114 -35 120 -35 7 0 23
22 37 50 31 60 44 51 -175 120 -568 178 -938 230 -1405 199z"/>
<path d="M7470 4373 c-224 -16 -430 -50 -1055 -173 -703 -139 -1434 -270
-1512 -270 -54 0 -40 -29 69 -144 l73 -78 135 17 c551 68 915 140 1649 326
524 133 664 159 901 166 254 8 469 -21 749 -102 67 -19 127 -35 131 -35 10 0
60 81 60 97 0 11 -209 76 -375 117 -280 70 -571 97 -825 79z"/>
<path d="M7605 4163 c-225 -26 -328 -48 -855 -181 -609 -155 -1009 -234 -1472
-293 -98 -13 -178 -26 -178 -30 0 -9 106 -101 188 -163 l64 -49 71 7 c115 10
340 45 507 77 277 54 507 118 932 259 637 213 729 234 1023 234 208 0 306 -13
504 -64 63 -17 115 -30 117 -30 10 0 73 95 67 101 -28 27 -387 110 -555 128
-90 10 -344 13 -413 4z"/>
<path d="M7682 3969 c-148 -17 -317 -64 -707 -194 -435 -145 -607 -196 -845
-250 -163 -38 -427 -85 -592 -106 -54 -7 -98 -16 -98 -20 0 -12 109 -75 244
-140 l127 -62 112 23 c353 70 592 151 1112 380 382 168 552 220 786 240 151
12 283 4 451 -30 53 -11 102 -20 110 -20 16 0 93 88 84 97 -12 12 -247 64
-354 78 -121 16 -311 18 -430 4z"/>
<path d="M7810 3793 c-180 -17 -390 -79 -640 -188 -429 -186 -525 -227 -645
-270 -140 -51 -392 -124 -517 -151 -43 -9 -76 -20 -73 -24 12 -19 287 -87 421
-105 79 -10 224 57 772 358 395 217 688 288 1007 243 l110 -15 50 49 c27 27
47 51 45 54 -9 8 -154 35 -245 46 -85 9 -208 11 -285 3z"/>
<path d="M7751 3605 c-194 -35 -380 -113 -736 -311 -115 -64 -273 -147 -350
-184 l-140 -68 49 -7 c27 -4 110 -5 185 -1 l136 7 185 122 c369 245 589 327
869 327 l116 0 64 52 c62 50 63 52 40 61 -43 17 -326 18 -418 2z"/>
<path d="M7875 3439 c-164 -11 -306 -53 -477 -140 -106 -55 -374 -227 -365
-235 11 -11 227 40 372 87 159 53 343 136 481 219 123 75 122 79 -11 69z"/>
<path d="M3672 4229 c-58 -23 -59 -29 -23 -94 18 -32 39 -40 75 -31 36 9 46
43 28 99 -8 26 -18 47 -21 46 -3 0 -30 -9 -59 -20z"/>
<path d="M4390 3066 c-39 -12 -80 -66 -80 -103 0 -58 56 -113 115 -113 58 0
115 55 115 110 0 25 -23 72 -43 89 -27 22 -71 29 -107 17z"/>
<path d="M8248 2577 l-37 -22 30 -52 30 -53 30 16 c67 34 88 84 51 117 -25 23
-60 21 -104 -6z"/>
<path d="M5054 2560 c-36 -14 -64 -59 -64 -102 0 -57 51 -108 108 -108 77 0
132 79 103 148 -23 54 -93 84 -147 62z"/>
<path d="M5440 2345 c-13 -31 -21 -57 -19 -59 2 -2 25 -11 50 -21 54 -20 85
-10 95 29 10 42 0 60 -46 83 -25 12 -48 22 -51 23 -4 0 -17 -25 -29 -55z"/>
<path d="M7285 2211 c-82 -36 -83 -159 -1 -198 107 -50 207 80 129 167 -30 33
-90 48 -128 31z"/>
<path d="M6578 2154 c-5 -4 -8 -34 -8 -66 l0 -58 50 0 c117 0 124 114 8 127
-24 3 -46 1 -50 -3z"/>
</g>
</svg>
